<svg width="103" height="101" viewBox="0 0 103 101" fill="none" xmlns="http://www.w3.org/2000/svg">
<path d="M29.937 31.626V42.0984C35.8679 52.4408 49.0906 59.5984 53.9476 62.9861L54.189 63.1811C59.8386 60.7008 70.5466 50.3907 80.0945 39.3425C71.1706 28.0629 55.417 25.3615 32.2795 24.4606V7.51181C48.5877 15.972 63.5907 15.95 78.5787 5.99606L78.1653 23.9094L80.6457 26.3898V2C64.7992 14.5394 43.8543 13.9882 29.937 2V26.8031C42.063 25.0286 73.3425 30.5236 76.5118 39.7559C67.8299 49.8175 59.1722 57.6374 54.189 59.5984C50.3766 57.7092 40.6698 53.1025 32.2795 41.685V33.5551L29.937 31.626Z" fill="#FAFF00"/>
<path d="M54.189 63.1811C59.8386 60.7008 70.5466 50.3907 80.0945 39.3425C71.1706 28.0629 55.417 25.3615 32.2795 24.4606V7.51181C48.5877 15.972 63.5907 15.95 78.5787 5.99606L78.1653 23.9094L80.6457 26.3898V2C64.7992 14.5394 43.8543 13.9882 29.937 2V26.8031C42.063 25.0286 73.3425 30.5236 76.5118 39.7559C67.8299 49.8175 59.1722 57.6374 54.189 59.5984C50.3766 57.7092 40.6698 53.1025 32.2795 41.685V33.5551L29.937 31.626V42.0984C35.8679 52.4408 49.0906 59.5984 53.9476 62.9861M54.189 63.1811L53.9476 62.9861M54.189 63.1811C54.1084 63.116 54.0279 63.051 53.9476 62.9861" stroke="#FAFF00" stroke-width="1.10236"/>
<path d="M24.5153 27.3543V17.7086C15.3587 16.4975 10.3306 15.4043 1.50354 12.4724C0.850089 21.7281 0.814455 26.9172 1.50354 36.1732C10.5505 38.6956 15.5959 40.4436 24.5153 44.5787V42.9252V32.7283L22.4484 34.3819V41.4094C15.7377 38.1372 11.6722 36.8088 4.12165 34.933C3.25258 27.4569 3.26093 23.2557 4.12165 15.7795C11.1527 18.0715 15.041 18.8841 21.8972 19.6378V25.1496L24.5153 27.3543Z" fill="#FAFF00" stroke="#FAFF00" stroke-width="1.10236"/>
<path d="M98.7869 30.5236V34.7952C93.9234 37.9408 91.1269 39.4529 85.972 41.5472V31.9015C91.9545 29.4061 95.1944 27.6962 100.854 24.3228L98.7869 23.3582C93.9587 26.3873 91.167 27.8185 85.972 29.6968V21.0157C91.0819 19.3623 93.8774 18.1068 98.7869 15.5039V18.811L100.854 20.1889V12.4724C94.4497 16.0904 90.789 17.8562 84.0428 20.1889V44.4409C90.8421 41.5877 94.5305 39.7037 100.854 35.7598V29.0078L98.7869 30.5236Z" fill="#FAFF00" stroke="#FAFF00" stroke-width="1.10236"/>
<path d="M59.854 67.5986L61.4061 69.1507V63.1811C56.281 67.8152 52.8639 68.064 45.5269 63.1811V73.2101C45.5269 73.2101 50.0781 77.6252 53.8843 77.6276C57.1581 77.6296 61.4061 74.5234 61.4061 74.5234V70.2253L60.4509 71.658C60.4509 71.658 56.8052 75.2037 53.8843 75.2397C51.1523 75.2734 47.5565 72.2549 47.5565 72.2549V67.0017C53.4068 70.9416 55.914 70.2253 59.854 67.5986Z" fill="#FAFF00" stroke="#FAFF00" stroke-width="0.238785"/>
<path d="M61.5255 76.7919V81.8064C55.7383 87.6464 52.2579 87.9318 45.5269 81.8064V76.7919L47.079 78.1052V79.4185C52.4103 84.7425 55.2082 84.7416 59.854 79.4185V78.1052L61.5255 76.7919Z" fill="#FAFF00" stroke="#FAFF00" stroke-width="0.238785"/>
<path fill-rule="evenodd" clip-rule="evenodd" d="M34.5267 88.4923V99.8346L37.1534 97.8049V95.5365H72.7324C73.8606 93.0497 74.0965 91.5633 72.7324 88.4923H34.5267ZM70.4639 93.9844H37.1534V90.8802L70.4639 90.6414C71.1832 91.3951 71.4225 93.0317 70.4639 93.9844Z" fill="#FAFF00" stroke="#FAFF00" stroke-width="0.238785"/>
</svg>
